<svg xmlns="http://www.w3.org/2000/svg" xmlns:xlink="http://www.w3.org/1999/xlink" width="500" zoomAndPan="magnify" viewBox="0 0 375 149.999998" height="200" preserveAspectRatio="xMidYMid meet" version="1.0"><defs><g/></defs><g fill="#252525" fill-opacity="1"><g transform="translate(-8.27389, 121.119314)"><g><path d="M 45.109375 -35.9375 L 28.984375 -35.9375 L 28.984375 0 L 8.765625 0 L 8.765625 -98.171875 L 45.234375 -98.171875 C 56.835938 -98.171875 65.785156 -95.582031 72.078125 -90.40625 C 78.367188 -85.238281 81.515625 -77.9375 81.515625 -68.5 C 81.515625 -61.800781 80.0625 -56.210938 77.15625 -51.734375 C 74.257812 -47.265625 69.867188 -43.707031 63.984375 -41.0625 L 85.21875 -0.9375 L 85.21875 0 L 63.515625 0 Z M 28.984375 -52.3125 L 45.3125 -52.3125 C 50.382812 -52.3125 54.3125 -53.601562 57.09375 -56.1875 C 59.882812 -58.78125 61.28125 -62.34375 61.28125 -66.875 C 61.28125 -71.507812 59.960938 -75.148438 57.328125 -77.796875 C 54.703125 -80.453125 50.671875 -81.78125 45.234375 -81.78125 L 28.984375 -81.78125 Z M 28.984375 -52.3125 "/></g></g></g><g fill="#252525" fill-opacity="1"><g transform="translate(70.31714, 121.119314)"><g><path d="M 4.453125 -37.15625 C 4.453125 -44.382812 5.84375 -50.832031 8.625 -56.5 C 11.414062 -62.164062 15.425781 -66.546875 20.65625 -69.640625 C 25.894531 -72.742188 31.976562 -74.296875 38.90625 -74.296875 C 48.75 -74.296875 56.78125 -71.285156 63 -65.265625 C 69.226562 -59.242188 72.703125 -51.0625 73.421875 -40.71875 L 73.5625 -35.734375 C 73.5625 -24.535156 70.4375 -15.554688 64.1875 -8.796875 C 57.9375 -2.035156 49.550781 1.34375 39.03125 1.34375 C 28.519531 1.34375 20.128906 -2.023438 13.859375 -8.765625 C 7.585938 -15.503906 4.453125 -24.671875 4.453125 -36.265625 Z M 23.9375 -35.734375 C 23.9375 -28.804688 25.238281 -23.507812 27.84375 -19.84375 C 30.445312 -16.1875 34.175781 -14.359375 39.03125 -14.359375 C 43.75 -14.359375 47.4375 -16.164062 50.09375 -19.78125 C 52.75 -23.40625 54.078125 -29.195312 54.078125 -37.15625 C 54.078125 -43.9375 52.75 -49.191406 50.09375 -52.921875 C 47.4375 -56.648438 43.707031 -58.515625 38.90625 -58.515625 C 34.132812 -58.515625 30.445312 -56.660156 27.84375 -52.953125 C 25.238281 -49.242188 23.9375 -43.503906 23.9375 -35.734375 Z M 23.9375 -35.734375 "/></g></g></g><g fill="#252525" fill-opacity="1"><g transform="translate(138.86247, 121.119314)"><g><path d="M 73.21875 -35.796875 C 73.21875 -24.109375 70.722656 -14.992188 65.734375 -8.453125 C 60.742188 -1.921875 53.773438 1.34375 44.828125 1.34375 C 36.921875 1.34375 30.609375 -1.6875 25.890625 -7.75 L 25.015625 0 L 7.484375 0 L 7.484375 -103.5625 L 26.96875 -103.5625 L 26.96875 -66.40625 C 31.457031 -71.664062 37.367188 -74.296875 44.703125 -74.296875 C 53.597656 -74.296875 60.570312 -71.023438 65.625 -64.484375 C 70.6875 -57.941406 73.21875 -48.738281 73.21875 -36.875 Z M 53.734375 -37.21875 C 53.734375 -44.582031 52.5625 -49.960938 50.21875 -53.359375 C 47.882812 -56.753906 44.40625 -58.453125 39.78125 -58.453125 C 33.570312 -58.453125 29.300781 -55.910156 26.96875 -50.828125 L 26.96875 -22.046875 C 29.351562 -16.921875 33.664062 -14.359375 39.90625 -14.359375 C 46.207031 -14.359375 50.34375 -17.460938 52.3125 -23.671875 C 53.257812 -26.628906 53.734375 -31.144531 53.734375 -37.21875 Z M 53.734375 -37.21875 "/></g></g></g><g fill="#252525" fill-opacity="1"><g transform="translate(207.070704, 121.119314)"><g><path d="M 73.21875 -35.796875 C 73.21875 -24.109375 70.722656 -14.992188 65.734375 -8.453125 C 60.742188 -1.921875 53.773438 1.34375 44.828125 1.34375 C 36.921875 1.34375 30.609375 -1.6875 25.890625 -7.75 L 25.015625 0 L 7.484375 0 L 7.484375 -103.5625 L 26.96875 -103.5625 L 26.96875 -66.40625 C 31.457031 -71.664062 37.367188 -74.296875 44.703125 -74.296875 C 53.597656 -74.296875 60.570312 -71.023438 65.625 -64.484375 C 70.6875 -57.941406 73.21875 -48.738281 73.21875 -36.875 Z M 53.734375 -37.21875 C 53.734375 -44.582031 52.5625 -49.960938 50.21875 -53.359375 C 47.882812 -56.753906 44.40625 -58.453125 39.78125 -58.453125 C 33.570312 -58.453125 29.300781 -55.910156 26.96875 -50.828125 L 26.96875 -22.046875 C 29.351562 -16.921875 33.664062 -14.359375 39.90625 -14.359375 C 46.207031 -14.359375 50.34375 -17.460938 52.3125 -23.671875 C 53.257812 -26.628906 53.734375 -31.144531 53.734375 -37.21875 Z M 53.734375 -37.21875 "/></g></g></g><g fill="#252525" fill-opacity="1"><g transform="translate(275.278938, 121.119314)"><g><path d="M 28.046875 0 L 8.5 0 L 8.5 -103.5625 L 28.046875 -103.5625 Z M 28.046875 0 "/></g></g></g><g fill="#252525" fill-opacity="1"><g transform="translate(302.360512, 121.119314)"><g><path d="M 41.0625 1.34375 C 30.363281 1.34375 21.65625 -1.9375 14.9375 -8.5 C 8.21875 -15.0625 4.859375 -23.800781 4.859375 -34.71875 L 4.859375 -36.609375 C 4.859375 -43.929688 6.269531 -50.476562 9.09375 -56.25 C 11.925781 -62.03125 15.9375 -66.484375 21.125 -69.609375 C 26.320312 -72.734375 32.25 -74.296875 38.90625 -74.296875 C 48.882812 -74.296875 56.738281 -71.148438 62.46875 -64.859375 C 68.195312 -58.566406 71.0625 -49.644531 71.0625 -38.09375 L 71.0625 -30.140625 L 24.609375 -30.140625 C 25.234375 -25.367188 27.128906 -21.546875 30.296875 -18.671875 C 33.472656 -15.796875 37.488281 -14.359375 42.34375 -14.359375 C 49.84375 -14.359375 55.707031 -17.078125 59.9375 -22.515625 L 69.515625 -11.796875 C 66.585938 -7.660156 62.628906 -4.4375 57.640625 -2.125 C 52.648438 0.1875 47.125 1.34375 41.0625 1.34375 Z M 38.828125 -58.515625 C 34.960938 -58.515625 31.828125 -57.210938 29.421875 -54.609375 C 27.023438 -52.003906 25.488281 -48.273438 24.8125 -43.421875 L 51.921875 -43.421875 L 51.921875 -44.96875 C 51.828125 -49.28125 50.65625 -52.613281 48.40625 -54.96875 C 46.15625 -57.332031 42.960938 -58.515625 38.828125 -58.515625 Z M 38.828125 -58.515625 "/></g></g></g></svg>